<svg width="183" height="57" viewBox="0 0 183 57" fill="none" xmlns="http://www.w3.org/2000/svg">
<path d="M16.688 56.632C11.6107 56.632 7.216 54.3707 3.504 49.848L8.56 46.84C10.864 49.528 13.5733 50.872 16.688 50.872C18.096 50.872 19.44 50.5947 20.72 50.04C22 49.4853 23.1093 48.7173 24.048 47.736C24.9867 46.7547 25.712 45.624 26.224 44.344C26.7787 43.064 27.056 41.72 27.056 40.312V38.776C24.1547 42.0187 20.6773 43.64 16.624 43.64C14.448 43.64 12.3573 43.192 10.352 42.296C8.38933 41.3573 6.68267 40.0987 5.232 38.52C3.78133 36.9413 2.62933 35.1493 1.776 33.144C0.965334 31.1387 0.56 29.0693 0.56 26.936C0.56 24.76 0.965334 22.712 1.776 20.792C2.62933 18.8293 3.80267 17.1013 5.296 15.608C6.78933 14.1573 8.496 13.0267 10.416 12.216C12.3787 11.4053 14.448 11 16.624 11C18.9707 11 21.0613 11.512 22.896 12.536C24.7307 13.56 26.1173 14.712 27.056 15.992V11.576H32.816V40.312C32.816 42.5307 32.3893 44.6213 31.536 46.584C30.7253 48.5467 29.5733 50.296 28.08 51.832C26.6293 53.3253 24.9013 54.4987 22.896 55.352C20.9333 56.2053 18.864 56.632 16.688 56.632ZM16.624 16.824C15.216 16.824 13.872 17.1013 12.592 17.656C11.312 18.168 10.2027 18.9147 9.264 19.896C8.32533 20.8773 7.57867 22.0293 7.024 23.352C6.46933 24.632 6.192 25.976 6.192 27.384C6.192 28.792 6.46933 30.1573 7.024 31.48C7.57867 32.76 8.32533 33.8693 9.264 34.808C10.2027 35.7467 11.312 36.4933 12.592 37.048C13.872 37.6027 15.216 37.88 16.624 37.88C18.032 37.88 19.376 37.6027 20.656 37.048C21.936 36.4933 23.0453 35.7467 23.984 34.808C24.9227 33.8693 25.648 32.76 26.16 31.48C26.7147 30.1573 26.992 28.792 26.992 27.384C26.992 25.976 26.7147 24.632 26.16 23.352C25.648 22.0293 24.9227 20.8773 23.984 19.896C23.0453 18.9147 21.936 18.168 20.656 17.656C19.376 17.1013 18.032 16.824 16.624 16.824ZM58.976 43V23.352C58.976 21.3467 58.272 19.64 56.864 18.232C56.224 17.592 55.456 17.08 54.56 16.696C53.7067 16.312 52.832 16.12 51.936 16.12C50.016 16.12 48.352 16.824 46.944 18.232C45.536 19.64 44.832 21.3467 44.832 23.352V43H39.2V0.311996H44.832V13.24C46.88 11.32 49.248 10.36 51.936 10.36C53.6427 10.36 55.264 10.7013 56.8 11.384C58.336 12.024 59.7013 12.9413 60.896 14.136C62.048 15.3307 62.944 16.7387 63.584 18.36C64.2667 19.9387 64.608 21.6027 64.608 23.352V43H58.976ZM86.5645 43.32C84.3885 43.32 82.3192 42.8933 80.3565 42.04C78.3938 41.1867 76.6658 40.0133 75.1725 38.52C73.6792 37.0267 72.5058 35.2987 71.6525 33.336C70.7992 31.3733 70.3725 29.304 70.3725 27.128C70.3725 24.9093 70.7992 22.7973 71.6525 20.792C72.5058 18.7867 73.6792 17.0373 75.1725 15.544C76.6658 14.0507 78.3938 12.8987 80.3565 12.088C82.3192 11.2347 84.3885 10.808 86.5645 10.808C88.7832 10.808 90.8952 11.2347 92.9005 12.088C94.9058 12.8987 96.6552 14.0507 98.1485 15.544C99.6418 17.0373 100.794 18.7867 101.604 20.792C102.458 22.7973 102.885 24.9093 102.885 27.128C102.885 29.304 102.458 31.3733 101.604 33.336C100.794 35.2987 99.6418 37.0267 98.1485 38.52C96.6552 40.0133 94.9058 41.1867 92.9005 42.04C90.8952 42.8933 88.7832 43.32 86.5645 43.32ZM86.5645 16.504C83.7058 16.504 81.2525 17.528 79.2045 19.576C78.2232 20.5573 77.4552 21.7093 76.9005 23.032C76.3458 24.3547 76.0685 25.72 76.0685 27.128C76.0685 28.536 76.3458 29.88 76.9005 31.16C77.4552 32.44 78.2232 33.5707 79.2045 34.552C80.1858 35.5333 81.2952 36.3013 82.5325 36.856C83.8125 37.4107 85.1565 37.688 86.5645 37.688C87.9725 37.688 89.3378 37.4107 90.6605 36.856C91.9832 36.3013 93.1138 35.5333 94.0525 34.552C94.9912 33.5707 95.7378 32.44 96.2925 31.16C96.8472 29.88 97.1245 28.536 97.1245 27.128C97.1245 25.72 96.8472 24.3547 96.2925 23.032C95.7378 21.7093 94.9912 20.5573 94.0525 19.576C93.1138 18.5947 91.9832 17.848 90.6605 17.336C89.3805 16.7813 88.0152 16.504 86.5645 16.504ZM123.516 20.536C123.388 19.768 123.11 19.0427 122.684 18.36C121.873 16.952 120.273 16.248 117.884 16.248C116.604 16.248 115.622 16.3973 114.94 16.696C114.044 17.0373 113.361 17.528 112.892 18.168C112.465 18.808 112.252 19.512 112.252 20.28C112.252 21.2187 112.593 22.072 113.276 22.84C114.001 23.6507 115.174 24.0773 116.796 24.12C119.654 24.248 121.958 24.5893 123.708 25.144C125.5 25.6987 126.865 26.6587 127.804 28.024C128.785 29.3893 129.276 31.3093 129.276 33.784C129.276 36.3013 128.316 38.4773 126.396 40.312C125.457 41.208 124.348 41.9333 123.068 42.488C121.83 43.0427 120.529 43.32 119.164 43.32H118.204C114.79 43.32 112.038 42.3387 109.948 40.376C108.241 38.7973 107.174 36.5787 106.748 33.72H112.444C112.657 34.744 113.084 35.576 113.724 36.216C114.705 37.1547 116.07 37.624 117.82 37.624C118.289 37.624 118.63 37.6027 118.844 37.56C120.337 37.4747 121.51 37.0693 122.364 36.344C123.217 35.576 123.644 34.6373 123.644 33.528C123.644 31.992 123.174 30.9893 122.236 30.52C121.297 30.0507 119.484 29.816 116.796 29.816C113.425 29.816 110.844 28.7493 109.052 26.616C107.601 24.9947 106.876 22.9467 106.876 20.472C106.876 19.9173 106.897 19.4907 106.94 19.192C107.281 16.4187 108.412 14.3067 110.332 12.856C112.294 11.3627 114.876 10.616 118.076 10.616C120.422 10.616 122.47 11.128 124.22 12.152C125.457 12.92 126.524 13.9867 127.42 15.352C128.273 16.7173 128.828 18.424 129.084 20.472L128.956 20.536H123.516ZM144.613 16.76V43H139.173V16.76H134.373V11H139.173V0.439999H144.613V11H149.413V16.76H144.613ZM168.448 56.632C166.016 56.632 163.755 56.0133 161.664 54.776C159.616 53.5387 157.824 51.7467 156.288 49.4L161.28 46.52C162.176 47.928 163.243 48.9947 164.48 49.72C165.717 50.488 167.04 50.872 168.448 50.872C170.709 50.872 172.672 50.04 174.336 48.376C175.104 47.608 175.68 46.712 176.064 45.688C176.491 44.664 176.704 43.576 176.704 42.424V40.184C175.723 41.208 174.485 42.04 172.992 42.68C171.499 43.2773 169.984 43.576 168.448 43.576C166.571 43.576 164.8 43.2347 163.136 42.552C161.472 41.8267 160 40.824 158.72 39.544C157.397 38.264 156.373 36.792 155.648 35.128C154.923 33.4213 154.56 31.6293 154.56 29.752V11H160.192V29.368C160.192 30.8613 160.555 32.2693 161.28 33.592C162.048 34.872 163.051 35.896 164.288 36.664C165.568 37.432 166.955 37.816 168.448 37.816C169.941 37.816 171.328 37.4533 172.608 36.728C173.888 35.96 174.891 34.936 175.616 33.656C176.341 32.3333 176.704 30.904 176.704 29.368V11H182.336V42.424C182.336 44.344 181.973 46.1787 181.248 47.928C180.565 49.6773 179.584 51.192 178.304 52.472C176.981 53.7947 175.467 54.8187 173.76 55.544C172.096 56.2693 170.325 56.632 168.448 56.632Z" fill="#EA5247"/>
</svg>
