<svg width="30" height="30" viewBox="0 0 30 30" fill="none" xmlns="http://www.w3.org/2000/svg">
<path d="M24.3333 9.40169C24.3333 7.17343 23.35 5.03642 21.5997 3.4608C19.8493 1.88518 17.4754 1 15 1C12.5246 1 10.1507 1.88518 8.40034 3.4608C6.65 5.03642 5.66667 7.17343 5.66667 9.40169C5.66667 19.2037 1 22.0042 1 22.0042H29C29 22.0042 24.3333 19.2037 24.3333 9.40169Z" stroke="#E15141" stroke-width="2" stroke-linecap="round" stroke-linejoin="round"/>
<path d="M17.6908 27.6035C17.4173 28.0279 17.0248 28.3802 16.5525 28.6251C16.0802 28.8699 15.5447 28.9988 14.9997 28.9988C14.4547 28.9988 13.9192 28.8699 13.4469 28.6251C12.9746 28.3802 12.5821 28.0279 12.3086 27.6035" stroke="#E15141" stroke-width="2" stroke-linecap="round" stroke-linejoin="round"/>
</svg>
