<svg width="30" height="30" viewBox="0 0 30 30" fill="none" xmlns="http://www.w3.org/2000/svg">
<path d="M4.65234 16.2734V27.728C4.65234 28.0655 4.7806 28.3893 5.00891 28.6279C5.23721 28.8666 5.54686 29.0007 5.86974 29.0007H11.348C11.5094 29.0007 11.6643 28.9337 11.7784 28.8143C11.8926 28.695 11.9567 28.5331 11.9567 28.3643V23.2734C11.9567 22.4296 12.2773 21.6203 12.8481 21.0236C13.4189 20.4268 14.193 20.0916 15.0002 20.0916C15.8073 20.0916 16.5815 20.4268 17.1522 21.0236C17.723 21.6203 18.0436 22.4296 18.0436 23.2734V28.3643C18.0436 28.5331 18.1078 28.695 18.2219 28.8143C18.3361 28.9337 18.4909 29.0007 18.6523 29.0007H24.1306C24.4535 29.0007 24.7631 28.8666 24.9914 28.6279C25.2197 28.3893 25.348 28.0655 25.348 27.728V16.9098" stroke="#E15141" stroke-width="2" stroke-linecap="round" stroke-linejoin="round"/>
<path d="M1 15.6364L15 1L29 15.6364" stroke="#E15141" stroke-width="2" stroke-linecap="round" stroke-linejoin="round"/>
</svg>
