<svg width="12" height="11" viewBox="0 0 12 11" fill="none" xmlns="http://www.w3.org/2000/svg">
<path d="M10.2289 1.79567C9.98456 1.54342 9.69445 1.34331 9.37514 1.20679C9.05583 1.07027 8.71358 1 8.36794 1C8.0223 1 7.68005 1.07027 7.36074 1.20679C7.04143 1.34331 6.75132 1.54342 6.50697 1.79567L5.99987 2.31893L5.49277 1.79567C4.99921 1.28638 4.3298 1.00026 3.6318 1.00026C2.93381 1.00026 2.2644 1.28638 1.77084 1.79567C1.27728 2.30495 1 2.99569 1 3.71593C1 4.43617 1.27728 5.12692 1.77084 5.6362L2.27794 6.15946L5.99987 10L9.72181 6.15946L10.2289 5.6362C10.4734 5.38407 10.6673 5.08471 10.7996 4.75523C10.9319 4.42574 11 4.07258 11 3.71593C11 3.35928 10.9319 3.00613 10.7996 2.67664C10.6673 2.34716 10.4734 2.0478 10.2289 1.79567V1.79567Z" stroke="#0A2541" stroke-linecap="round" stroke-linejoin="round"/>
</svg>
