<svg width="12" height="12" viewBox="0 0 12 12" fill="none" xmlns="http://www.w3.org/2000/svg">
<path d="M5.97852 1.41211V10.3938" stroke="#FDF7FA" stroke-linecap="round" stroke-linejoin="round"/>
<path d="M7.875 3H5.0625C4.7144 3 4.38056 3.15804 4.13442 3.43934C3.88828 3.72064 3.75 4.10218 3.75 4.5C3.75 4.89782 3.88828 5.27936 4.13442 5.56066C4.38056 5.84196 4.7144 6 5.0625 6H6.9375C7.2856 6 7.61944 6.15804 7.86558 6.43934C8.11172 6.72064 8.25 7.10218 8.25 7.5C8.25 7.89782 8.11172 8.27936 7.86558 8.56066C7.61944 8.84197 7.2856 9 6.9375 9H3.75" stroke="#FDF7FA" stroke-linecap="round" stroke-linejoin="round"/>
<circle cx="6" cy="6" r="5.5" stroke="#FDF7FA"/>
</svg>
